<svg xmlns="http://www.w3.org/2000/svg" version="1.1" xmlns:xlink="http://www.w3.org/1999/xlink" width="200" height="200"><svg xmlns="http://www.w3.org/2000/svg" version="1.1" xmlns:xlink="http://www.w3.org/1999/xlink" viewBox="0 0 200 200"><rect width="200" height="200" fill="url('#gradient')"></rect><defs><linearGradient id="SvgjsLinearGradient1008" gradientTransform="rotate(63 0.5 0.5)"><stop offset="0%" stop-color="#c90000"></stop><stop offset="100%" stop-color="#d9e241"></stop></linearGradient></defs><g><g fill="#1b3855" transform="matrix(5.5083378160301235,0,0,5.5083378160301235,-3.336181398423008,140.7640440185715)" stroke="#0e5278" stroke-width="0.2"><path d="M11.65-12.46L4.92-2.64L11.72-2.64L11.72 0L0.64 0L0.64-1.81L7.42-11.57L0.61-11.57L0.61-14.22L11.65-14.22L11.65-12.46ZM15.21-7.47L15.23-7.49Q14.66-8.31 14.33-9.05Q14.00-9.79 14.00-10.59L14.00-10.59Q14.00-12.30 15.12-13.36Q16.23-14.42 18.03-14.42L18.03-14.42Q19.64-14.42 20.69-13.44Q21.75-12.46 21.75-11.01L21.75-11.01Q21.75-9.19 19.75-7.78L19.75-7.78L19.00-7.27L21.19-4.76Q21.73-5.83 21.73-7.11L21.73-7.11L24.49-7.11Q24.49-4.23 23.16-2.49L23.16-2.49L25.33 0L21.66 0L21.00-0.75Q20.18-0.26 19.32-0.03Q18.47 0.21 17.39 0.21L17.39 0.21Q15.28 0.21 14.01-0.90Q12.74-2.01 12.74-3.82L12.74-3.82Q12.74-4.80 13.25-5.61Q13.75-6.41 15.21-7.47L15.21-7.47ZM17.61-2.33L17.61-2.33Q18.47-2.33 19.25-2.73L19.25-2.73L16.69-5.64L16.60-5.59Q16.04-4.90 16.04-4.04L16.04-4.04Q16.04-3.33 16.49-2.83Q16.94-2.33 17.61-2.33ZM16.85-10.63L16.85-10.63Q16.85-9.94 17.59-8.96L17.59-8.96L18.24-9.38Q18.69-9.67 18.90-9.98Q19.10-10.29 19.10-10.77L19.10-10.77Q19.10-11.22 18.79-11.55Q18.48-11.88 18.02-11.88L18.02-11.88Q17.47-11.88 17.16-11.54Q16.85-11.19 16.85-10.63ZM33.14 0L30.84-3.94L29.91-3.01L29.91 0L26.62 0L26.62-15.01L29.91-15.01L29.91-7.04L30.24-7.48L32.72-10.57L36.67-10.57L32.97-6.22L36.91 0L33.14 0Z"></path></g></g></svg><style>@media (prefers-color-scheme: light) { :root { filter: none; } }
@media (prefers-color-scheme: dark) { :root { filter: none; } }
</style></svg>